<svg width="145" height="30" viewBox="0 0 145 30" fill="none" xmlns="http://www.w3.org/2000/svg">
<g clip-path="url(#clip0_10_250)">
<path d="M30 0H0V30H30V0Z" fill="#838383"/>
<path d="M14 17L8.80005 7.30005H11.2L14.2 13.4C14.2 13.5 14.3 13.6 14.4 13.7C14.5 13.8 14.5 13.9 14.6 14.1L14.7 14.2V14.3C14.8 14.5 14.8 14.6 14.9 14.8C15 14.9 15 15.1 15.1 15.2C15.2 14.9 15.4 14.7 15.5 14.3C15.6 14 15.8 13.7 16 13.4L19 7.30005H21.2L16 17.1V23.3H14V17Z" fill="white"/>
<path d="M43.7 5.80005C45.2 5.80005 46.5 6.20005 47.5 7.00005L46.5 8.20005C45.6 7.60005 44.7 7.20005 43.6 7.20005C41.9 7.20005 40.6 8.10005 39.9 9.80005C39.5 10.8 39.3 12.1 39.3 13.8C39.3 15.1 39.5 16.2 39.8 17C40.6 18.9 41.9 19.8 43.9 19.8C45 19.8 46 19.5 46.9 18.8L47.9 20.1C46.6 20.9 45.2 21.3 43.7 21.3C41.9 21.3 40.4 20.6 39.2 19.1C38 17.7 37.5 15.8 37.5 13.5C37.5 11.2 38.1 9.40005 39.3 7.90005C40.4 6.60005 41.9 5.80005 43.7 5.80005Z" fill="#838383"/>
<path d="M49.4 15.6999C49.4 13.8999 49.8 12.4999 50.7 11.4999C51.6 10.4999 52.7 9.8999 54.1 9.8999C55.7 9.8999 57 10.4999 57.9 11.7999C58.6 12.7999 58.9 14.1999 58.9 15.8999C58.9 17.8999 58.3 19.4999 57.2 20.4999C56.4 21.1999 55.4 21.5999 54.2 21.5999C52.7 21.5999 51.6 21.0999 50.7 19.9999C49.8 18.9999 49.4 17.4999 49.4 15.6999ZM56.4 12.7999C55.9 11.8999 55.2 11.3999 54.1 11.3999C53 11.3999 52.3 11.7999 51.8 12.5999C51.4 13.1999 51.3 14.1999 51.3 15.4999C51.3 17.1999 51.5 18.3999 52 19.0999C52.5 19.7999 53.2 20.1999 54.2 20.1999C55.4 20.1999 56.2 19.5999 56.6 18.4999C56.8 17.8999 56.9 17.0999 56.9 16.0999C57 14.5999 56.8 13.4999 56.4 12.7999Z" fill="#838383"/>
<path d="M62.0999 12.9999C62.0999 11.8999 62 10.9999 61.7 10.2999L63.4 9.8999C63.7 10.3999 63.7999 10.9999 63.7999 11.4999V11.5999C64.1999 11.1999 64.5999 10.7999 65.1999 10.4999C65.8999 10.0999 66.4999 9.8999 67.0999 9.8999C67.9999 9.8999 68.8 10.2999 69.3 10.9999C69.4 11.1999 69.5999 11.4999 69.6999 11.6999C70.8999 10.4999 71.9999 9.8999 73.1999 9.8999C73.9999 9.8999 74.6999 10.1999 75.1999 10.6999C75.6999 11.2999 76 11.9999 76 12.7999V21.0999H74.1999V12.8999C74.1999 11.7999 73.7 11.2999 72.8 11.2999C72.3 11.2999 71.6999 11.4999 71.1999 11.8999C70.9999 12.0999 70.5999 12.3999 70.0999 12.7999L69.9 12.9999V21.0999H68V13.2999C68 12.5999 67.8999 12.0999 67.6999 11.8999C67.3999 11.5999 67.0999 11.4999 66.5999 11.4999C65.7999 11.4999 64.8999 11.9999 63.7999 12.9999V21.1999H62.0999V12.9999Z" fill="#838383"/>
<path d="M79.1 5.4L80.9 5C81.1 5.8 81.2 6.7 81.2 7.8V10.3C81.2 10.9 81.2 11.3 81.2 11.5C82.2 10.5 83.3 10 84.4 10C85.7 10 86.8 10.5 87.5 11.5C88.3 12.5 88.7 13.9 88.7 15.6C88.7 17.4 88.3 18.8 87.5 19.9C86.7 21 85.6 21.5 84.3 21.5C83.7 21.5 83.2 21.4 82.6 21.1C82 20.8 81.6 20.5 81.3 20.1C81.2 20.6 81.1 21 81 21.3H79.3C79.5 20.8 79.6 19.9 79.6 18.5V8C79.5 6.8 79.4 5.9 79.1 5.4ZM82 12.2C81.7 12.4 81.4 12.7 81.2 13V18.7C81.9 19.6 82.8 20 83.9 20C84.8 20 85.5 19.7 85.9 19C86.4 18.2 86.7 17.1 86.7 15.5C86.7 14.1 86.5 13.1 86 12.5C85.6 11.9 84.9 11.6 83.9 11.6C83.3 11.5 82.6 11.7 82 12.2Z" fill="#838383"/>
<path d="M91.3 6.7999C91.3 6.3999 91.4 6.0999 91.7 5.7999C92 5.4999 92.3 5.3999 92.7 5.3999C93.1 5.3999 93.4 5.4999 93.7 5.7999C94 6.0999 94.1 6.3999 94.1 6.7999C94.1 7.1999 94 7.4999 93.7 7.7999C93.4 8.0999 93.1 8.1999 92.7 8.1999C92.3 8.1999 92 8.0999 91.7 7.7999C91.4 7.4999 91.3 7.1999 91.3 6.7999ZM91.7 21.1999V10.1999L93.5 9.8999V21.1999H91.7Z" fill="#838383"/>
<path d="M97.4 12.9999C97.4 12.1999 97.4 11.6999 97.3 11.4999C97.3 11.1999 97.1 10.8999 96.9 10.3999L98.6 9.8999C98.9 10.4999 99 10.9999 99 11.5999C100.1 10.4999 101.3 9.8999 102.5 9.8999C103.1 9.8999 103.6 9.9999 104.1 10.2999C104.6 10.5999 105 10.9999 105.2 11.4999C105.4 11.8999 105.5 12.2999 105.5 12.7999V21.1999H103.8V13.6999C103.8 12.7999 103.7 12.1999 103.4 11.8999C103.1 11.5999 102.7 11.3999 102.2 11.3999C101.8 11.3999 101.2 11.5999 100.6 11.8999C100 12.1999 99.5 12.5999 99.1 12.9999V21.1999H97.4V12.9999Z" fill="#838383"/>
<path d="M109.5 12.5999L108.6 11.3999C110.1 10.3999 111.6 9.8999 113.2 9.8999C114.8 9.8999 115.8 10.4999 116.3 11.5999C116.5 11.9999 116.5 12.5999 116.5 13.4999V14.0999L116.4 17.6999C116.4 17.7999 116.4 17.9999 116.4 18.1999C116.4 18.7999 116.4 19.1999 116.5 19.4999C116.6 19.8999 116.9 20.1999 117.3 20.3999L116.4 21.5999C115.6 21.2999 115.1 20.7999 114.9 19.9999C113.9 20.9999 112.8 21.4999 111.7 21.4999C110.6 21.4999 109.7 21.1999 109 20.5999C108.4 20.0999 108.1 19.2999 108.1 18.2999C108.1 16.9999 108.6 16.0999 109.6 15.3999C110.6 14.6999 112.1 14.3999 113.9 14.3999C114.2 14.3999 114.4 14.3999 114.7 14.3999V13.5999C114.7 12.6999 114.6 12.0999 114.3 11.8999C113.9 11.4999 113.5 11.2999 112.8 11.2999C112.2 11.2999 111.5 11.4999 110.7 11.7999C110.4 11.9999 110 12.2999 109.5 12.5999ZM114.8 18.4999L114.9 15.5999C114.4 15.5999 114.1 15.5999 114 15.5999C112.4 15.5999 111.4 15.8999 110.8 16.4999C110.4 16.8999 110.2 17.4999 110.2 18.2999C110.2 19.5999 110.8 20.2999 112.1 20.2999C113.3 20.1999 114.2 19.5999 114.8 18.4999Z" fill="#838383"/>
<path d="M122.2 10.2H125L124.5 11.6H122.2V18.7C122.2 19.3 122.3 19.7 122.5 20C122.7 20.2 123.1 20.4 123.6 20.4C124 20.4 124.4 20.3 124.7 20.2L124.9 21.3C124.3 21.6 123.7 21.7 123 21.7C121.3 21.7 120.5 20.9 120.5 19.2V11.6H119V10.2H120.4V10C120.4 9.8 120.5 9 120.6 7.7V7.4L122.4 7C122.2 8.2 122.2 9.3 122.2 10.2Z" fill="#838383"/>
<path d="M126.8 15.6999C126.8 13.8999 127.2 12.4999 128.1 11.4999C128.9 10.4999 130.1 9.8999 131.5 9.8999C133.1 9.8999 134.4 10.4999 135.3 11.7999C136 12.7999 136.3 14.1999 136.3 15.8999C136.3 17.8999 135.7 19.4999 134.6 20.4999C133.8 21.1999 132.8 21.5999 131.6 21.5999C130.1 21.5999 129 21.0999 128.1 19.9999C127.3 18.9999 126.8 17.4999 126.8 15.6999ZM133.9 12.7999C133.4 11.8999 132.7 11.3999 131.6 11.3999C130.5 11.3999 129.8 11.7999 129.3 12.5999C128.9 13.1999 128.8 14.1999 128.8 15.4999C128.8 17.1999 129 18.3999 129.5 19.0999C130 19.7999 130.7 20.1999 131.7 20.1999C132.9 20.1999 133.7 19.5999 134.1 18.4999C134.3 17.8999 134.4 17.0999 134.4 16.0999C134.4 14.5999 134.2 13.4999 133.9 12.7999Z" fill="#838383"/>
<path d="M139.6 12.7999C139.6 11.7999 139.5 10.9999 139.2 10.3999L140.9 9.8999C141.2 10.4999 141.3 10.9999 141.3 11.5999V11.7999C142.2 10.5999 143.2 9.9999 144.4 9.9999C144.6 9.9999 144.8 9.9999 145 10.0999L144.3 11.9999C144.1 11.8999 143.9 11.8999 143.8 11.8999C143.4 11.8999 142.9 11.9999 142.5 12.2999C142.1 12.5999 141.7 12.8999 141.5 13.2999C141.4 13.5999 141.3 13.9999 141.3 14.4999V21.3999H139.6V12.7999Z" fill="#838383"/>
</g>
<defs>
<clipPath id="clip0_10_250">
<rect width="145" height="30" fill="white"/>
</clipPath>
</defs>
</svg>
