<svg width="117" height="50" viewBox="0 0 117 50" fill="none" xmlns="http://www.w3.org/2000/svg">
<path d="M0.956235 -0.00634766V13.6537L40.2062 13.6524V-0.00634766H0.956235ZM34.8 3.6749L35.1675 3.6824C35.24 3.6849 35.2987 3.74865 35.2987 3.8074V9.89865L34.7987 9.46865C34.82 9.43115 34.8362 9.39365 34.8362 9.34365V3.7724C34.83 3.7399 34.8212 3.7149 34.8112 3.69115L34.8 3.6749ZM35.1475 9.9999H32.05C32.036 9.91659 32.0041 9.83729 31.9567 9.7674C31.9092 9.6975 31.8472 9.63867 31.775 9.5949H34.56C34.5898 9.59651 34.6194 9.59049 34.6462 9.5774L35.1475 9.9999ZM28.4637 3.7674C28.5388 3.71418 28.6261 3.68066 28.7175 3.6699C28.745 3.6699 28.78 3.6649 28.8112 3.6649H28.8387C29.4012 3.6649 30.07 3.70615 30.5887 3.8999C31.1075 4.09365 31.4562 4.41615 31.4575 5.0249H31.645C31.6487 4.4274 31.9975 4.1124 32.5175 3.8999C33.0175 3.7049 33.705 3.6649 34.2612 3.6649H34.3237C34.3512 3.6649 34.3737 3.6699 34.3987 3.6699C34.4535 3.67852 34.5072 3.6932 34.5587 3.71365C34.5925 3.73115 34.6175 3.7474 34.6312 3.7574L34.6387 9.32865C34.6387 9.3749 34.6012 9.4099 34.5637 9.4099H28.5387C28.4975 9.4099 28.4637 9.3724 28.4637 9.32865V3.76615V3.7674ZM28.5387 9.59615H31.1662C31.0237 9.68365 30.92 9.84615 30.8912 10.0012H27.925C27.9125 10.0012 27.905 9.99865 27.8925 9.99865L28.41 9.56115C28.45 9.58365 28.4937 9.59865 28.5387 9.59865V9.59615ZM27.805 3.79615C27.805 3.7499 27.8587 3.6874 27.9325 3.67115L28.3037 3.66365C28.2891 3.68891 28.2801 3.71707 28.2775 3.74615V9.3174C28.2775 9.3474 28.2825 9.3774 28.2925 9.4024L27.7925 9.81865V3.78115L27.805 3.79615ZM24.2762 3.69365C24.345 3.69365 24.4062 3.7649 24.4062 3.81865V9.86865L23.9087 9.45115C23.9231 9.42062 23.9307 9.38738 23.9312 9.35365V3.77865C23.925 3.74615 23.9162 3.72615 23.9062 3.70365L24.275 3.7049L24.2762 3.69365ZM24.2962 10.0137H21.1562C21.1448 9.93084 21.1157 9.85142 21.0711 9.78072C21.0265 9.71001 20.9673 9.64965 20.8975 9.60365H23.6687C23.7062 9.60365 23.7437 9.59365 23.7937 9.57865L24.2962 10.0137ZM20.7462 4.83615C20.75 4.31365 21.0237 4.03615 21.4275 3.8699C21.8312 3.70365 22.355 3.6649 22.7925 3.6649L23.4925 3.6774C23.5511 3.68468 23.6081 3.70158 23.6612 3.7274C23.6912 3.7399 23.7212 3.7599 23.7362 3.7724L23.7425 3.7774V9.3449C23.7425 9.38615 23.7087 9.41615 23.67 9.41615H20.7475L20.7462 4.83615ZM17.5675 3.77615C17.5825 3.7674 17.6262 3.7349 17.6775 3.71365C17.7263 3.69648 17.7771 3.68597 17.8287 3.6824L18.5412 3.66365C18.9737 3.66365 19.4962 3.70115 19.8962 3.86865C20.2925 4.04365 20.5612 4.31365 20.5625 4.8349V9.41365H17.65C17.6037 9.41365 17.57 9.38365 17.57 9.3424V3.7749L17.5675 3.77615ZM17.6475 9.60115H20.2575C20.1872 9.64689 20.1275 9.70714 20.0825 9.77786C20.0374 9.84858 20.008 9.92813 19.9962 10.0112H17.0287C17.0162 10.0112 17.0037 10.0112 16.9887 10.0049L17.5137 9.5649C17.5512 9.5899 17.5962 9.60115 17.6475 9.60115ZM16.9075 3.8049C16.9075 3.7649 16.965 3.6799 17.0387 3.6799L17.4075 3.67865C17.395 3.70115 17.3862 3.7224 17.3825 3.75365V9.32865C17.3839 9.35582 17.3903 9.3825 17.4012 9.4074L16.9087 9.82365L16.9075 3.8049ZM13.0112 3.6799L13.3787 3.68115C13.4475 3.68115 13.51 3.7524 13.51 3.80615V9.87115L13.01 9.44615C13.0225 9.41365 13.0325 9.37865 13.0325 9.34115V3.76615C13.0312 3.7349 13.0225 3.71365 13.01 3.69115L13.0112 3.6799ZM13.3937 10.0012H10.26C10.248 9.91878 10.2191 9.83978 10.175 9.7692C10.1309 9.69861 10.0726 9.63798 10.0037 9.59115H12.7712C12.8087 9.59115 12.8487 9.5849 12.8812 9.57115L13.3937 10.0012ZM9.85373 4.82365C9.85748 4.30115 10.1287 4.02365 10.5312 3.8574C10.9337 3.69115 11.4612 3.6524 11.9012 3.6524L12.5962 3.6649C12.6137 3.6649 12.7 3.6824 12.765 3.7149C12.7922 3.72661 12.8178 3.74173 12.8412 3.7599L12.8475 3.7649V9.3324C12.8475 9.37365 12.8137 9.40365 12.77 9.40365H9.84998L9.85373 4.82365ZM6.67124 3.76365C6.68624 3.7549 6.73124 3.7224 6.79624 3.70115C6.84483 3.68486 6.89518 3.67437 6.94623 3.6699L7.65624 3.65115C8.08999 3.65115 8.60873 3.68865 9.00873 3.85615C9.40623 4.03115 9.67498 4.30115 9.67998 4.8224L9.67874 9.40115H6.74998C6.70623 9.40115 6.66999 9.37115 6.66999 9.3299L6.67124 3.76365ZM6.74998 9.5999H9.37499C9.23249 9.69365 9.14123 9.8399 9.11498 10.0099H6.12498C6.09998 10.0099 6.08374 10.0099 6.07124 10.0012L6.59249 9.55615C6.63374 9.58365 6.68748 9.5999 6.73873 9.5999H6.74998ZM5.99998 3.80365C5.99998 3.76365 6.05749 3.67865 6.12874 3.67865L6.49374 3.6774C6.48124 3.6999 6.47624 3.7174 6.47124 3.7524V9.3274C6.47124 9.34865 6.47624 9.36865 6.48374 9.3949L5.99998 9.8049V3.80365ZM5.34498 10.4587C5.24748 10.4587 5.17374 10.3774 5.17374 10.2837V9.37115C4.91749 9.33865 4.71874 9.17865 4.71874 8.9899C4.71874 8.80115 4.91874 8.6399 5.17374 8.60615V5.6624C4.91749 5.6249 4.71874 5.4699 4.71874 5.28115C4.71874 5.0924 4.91874 4.93615 5.17374 4.89865V3.73115C5.17374 3.63615 5.24873 3.5624 5.34498 3.5624L5.85499 3.6624C5.82999 3.6999 5.81373 3.7499 5.81248 3.8024V9.9099C5.81373 10.0787 5.95873 10.1974 6.12248 10.1974H9.08998C9.10498 10.2949 9.14624 10.3824 9.20499 10.4574L5.34498 10.4587ZM9.83874 10.4587H9.49498C9.42632 10.4248 9.36843 10.3725 9.32781 10.3076C9.28719 10.2426 9.26544 10.1677 9.26498 10.0912C9.26498 9.98473 9.30726 9.88267 9.38251 9.80743C9.45776 9.73218 9.55982 9.6899 9.66623 9.6899C9.77265 9.6899 9.87471 9.73218 9.94996 9.80743C10.0252 9.88267 10.0675 9.98473 10.0675 10.0912C10.0675 10.2537 9.97373 10.3912 9.83748 10.4587H9.83874ZM14.5712 8.99115C14.5712 9.17865 14.3737 9.33365 14.1187 9.3724V10.2849C14.1187 10.3762 14.0437 10.4599 13.9475 10.4599H10.125C10.1827 10.3824 10.2228 10.2933 10.2425 10.1987H13.3725C13.5312 10.1987 13.6762 10.0799 13.6762 9.91115V3.80365C13.6762 3.73365 13.6512 3.67365 13.6137 3.62615L13.9462 3.56365C14.0425 3.56365 14.1175 3.63865 14.1175 3.7324V4.90115C14.3737 4.93865 14.57 5.09115 14.57 5.2824C14.57 5.47365 14.3725 5.62615 14.1175 5.66365V8.6074C14.375 8.6449 14.5712 8.8049 14.5712 8.99115ZM16.2337 10.4587C16.14 10.4587 16.0662 10.3774 16.0662 10.2837V9.37115C15.8162 9.33865 15.6087 9.17865 15.6087 8.9899C15.6087 8.80115 15.8037 8.6399 16.0662 8.60615V5.6624C15.8162 5.6249 15.6087 5.4699 15.6087 5.28115C15.6087 5.0924 15.8037 4.93615 16.0662 4.89865V3.73115C16.0662 3.63615 16.1387 3.5624 16.2337 3.5624L16.7337 3.6624C16.7087 3.7024 16.6962 3.7499 16.6962 3.8024V9.9099C16.6962 10.0787 16.8387 10.1974 17.0025 10.1974H19.9712C19.9886 10.2919 20.028 10.381 20.0862 10.4574L16.2337 10.4587ZM20.73 10.4587H20.3837C20.2537 10.3912 20.1562 10.2549 20.1562 10.0912C20.1562 9.87365 20.3375 9.69365 20.5612 9.69365C20.6671 9.69332 20.7688 9.73497 20.844 9.80948C20.9192 9.88399 20.9618 9.98528 20.9625 10.0912C20.9637 10.2537 20.865 10.3912 20.73 10.4587ZM25.4625 8.99115C25.4625 9.17865 25.27 9.33365 25.0125 9.3724V10.2849C25.0122 10.3307 24.9939 10.3745 24.9617 10.407C24.9294 10.4394 24.8857 10.458 24.84 10.4587H21.0212C21.0785 10.3812 21.1177 10.2919 21.1362 10.1974H24.2637C24.4262 10.1974 24.5737 10.0787 24.5737 9.9099V3.8024C24.5737 3.7324 24.5487 3.6724 24.5087 3.6249L24.8412 3.5624C24.9387 3.5624 25.0137 3.6374 25.0137 3.73115V4.8999C25.2712 4.9374 25.4637 5.0899 25.4637 5.28115C25.4637 5.4724 25.2712 5.6249 25.0137 5.6624V8.60615C25.2712 8.64365 25.4637 8.80365 25.4637 8.9899L25.4625 8.99115ZM27.1287 10.4587C27.0412 10.4587 26.96 10.3774 26.96 10.2837V9.37115C26.71 9.33865 26.5062 9.17865 26.5062 8.9899C26.5062 8.80115 26.7 8.6399 26.96 8.60615V5.6624C26.71 5.6249 26.5062 5.4699 26.5062 5.28115C26.5062 5.0924 26.7 4.93615 26.96 4.89865V3.73115C26.96 3.63615 27.0387 3.5624 27.1287 3.5624L27.635 3.6624C27.614 3.70268 27.6021 3.74704 27.6 3.7924V9.8999C27.6037 10.0649 27.745 10.1824 27.9075 10.1824H30.875C30.8925 10.2849 30.9375 10.3749 30.9962 10.4574L27.1287 10.4587ZM31.6262 10.4587H31.2825C31.1575 10.3912 31.0537 10.2549 31.0537 10.0912C31.0544 9.98593 31.0965 9.88521 31.1709 9.8108C31.2453 9.7364 31.346 9.69431 31.4512 9.69365C31.6762 9.69365 31.8575 9.87365 31.8575 10.0912C31.8575 10.2537 31.7587 10.3912 31.6262 10.4587ZM36.36 8.99115C36.36 9.17865 36.1637 9.34115 35.9012 9.3724V10.2849C35.9012 10.3762 35.8287 10.4599 35.735 10.4599H31.9125C31.9747 10.3796 32.0159 10.2851 32.0325 10.1849H35.155C35.32 10.1849 35.4675 10.0674 35.4675 9.8974V3.79365C35.4675 3.72865 35.445 3.67365 35.4125 3.62615L35.735 3.56365C35.8287 3.56365 35.9012 3.63865 35.9012 3.7324V4.8999C36.1512 4.9374 36.36 5.0899 36.36 5.2824C36.36 5.4749 36.1637 5.62615 35.9012 5.66365V8.6074C36.1512 8.6449 36.36 8.8049 36.36 8.99115ZM11.365 7.94115C11.1725 7.94115 11.1187 7.89365 11.1187 7.71615V6.73865C11.4087 6.73865 11.5587 6.8574 11.5962 7.36365H11.6687V5.9999H11.5962C11.5487 6.4999 11.4012 6.6074 11.1187 6.6024V5.6649C11.1187 5.4899 11.1687 5.4774 11.3312 5.4774C11.7275 5.4774 11.9362 5.5774 12.0012 6.1524H12.0737V5.3374H10.3787V5.44115C10.5037 5.45365 10.6287 5.4599 10.6287 5.72865V7.6874C10.6287 7.9299 10.5375 7.94615 10.3787 7.96865V8.07115H12.1012L12.22 7.2274H12.135C11.95 7.8524 11.655 7.9449 11.3637 7.9449L11.365 7.94115ZM32.975 7.85865C33.0662 7.85865 33.1962 7.98365 33.4787 7.98365C34.0162 7.98365 34.2062 7.49365 34.2062 7.13365C34.2062 6.69615 33.985 6.46115 33.8812 6.38365L33.4537 6.0899C33.2037 5.92115 33.15 5.8324 33.15 5.6149C33.15 5.3649 33.3125 5.23115 33.4625 5.23115C33.8125 5.23115 33.9875 5.69365 34.0425 5.9749H34.1225V5.0999H34.0387C34.0212 5.18115 34.0075 5.24115 33.9387 5.24115C33.8562 5.24115 33.7175 5.10615 33.4825 5.10615C32.9225 5.10615 32.8325 5.65615 32.8325 5.90615C32.8325 6.09365 32.8325 6.43865 33.3362 6.78115L33.5337 6.90615C33.7212 7.02865 33.8587 7.1274 33.8587 7.40615C33.8587 7.4649 33.85 7.8649 33.4837 7.8649C33.1087 7.8649 32.9375 7.4024 32.8775 6.9974H32.7925V7.9974H32.8775C32.8925 7.93115 32.9025 7.8724 32.965 7.8724L32.975 7.85865ZM7.29999 5.6649L8.04999 8.08615H8.12874L8.79873 5.71615C8.86748 5.49115 8.90373 5.4099 9.06373 5.3849V5.2824H8.43873V5.3849C8.60748 5.3974 8.69249 5.4099 8.69249 5.5674C8.69249 5.6499 8.65998 5.7549 8.63498 5.84865L8.25998 7.17365L7.87873 5.89865C7.85123 5.79865 7.78748 5.62615 7.78748 5.54865C7.78748 5.39865 7.85748 5.39865 8.04373 5.3824V5.2799H7.04374V5.3824C7.16874 5.4074 7.21498 5.4199 7.28998 5.6624L7.29999 5.6649ZM19.0212 7.8899C18.8312 7.8524 18.765 7.8399 18.765 7.5199V6.7274H18.8437L19.4537 7.9949H20.0537V7.8899C20.0162 7.8899 19.9725 7.88865 19.9325 7.8149L19.3412 6.6649C19.4987 6.5924 19.8012 6.4699 19.8012 5.9699C19.8012 5.29115 19.1812 5.2599 18.9762 5.2599H18.03V5.3674C18.1975 5.3799 18.29 5.3874 18.29 5.7324V7.5199C18.29 7.8449 18.2275 7.8574 18.03 7.8899V7.9949H19.0212V7.8899ZM18.765 5.5699C18.7775 5.44115 18.785 5.39865 18.95 5.39865C19.1837 5.39865 19.3037 5.57365 19.3037 5.98115C19.3037 6.5024 19.1537 6.60615 18.7662 6.59615L18.765 5.5699ZM29.3112 5.3924V7.5174C29.3112 7.8549 29.2437 7.8674 29.0262 7.8874V7.9924H30.0787V7.8749C29.8575 7.8549 29.7875 7.84615 29.7875 7.5049V5.3799C29.99 5.38865 30.2937 5.4174 30.35 6.06365H30.4375L30.4337 5.23865H28.6675L28.6612 6.05365H28.7487C28.8037 5.40365 29.1037 5.37865 29.3112 5.3699V5.3924ZM31.0987 7.88615C30.9987 7.8774 30.8562 7.86615 30.8562 7.71365C30.8562 7.6449 30.9062 7.47865 30.99 7.1849H31.65C31.6875 7.3149 31.7787 7.61615 31.7787 7.72615C31.7787 7.8599 31.7287 7.86615 31.5487 7.88615V7.98115H32.4987V7.8749C32.3587 7.88365 32.3112 7.7424 32.1787 7.3124L31.5262 5.1874H31.445L30.795 7.3999C30.7037 7.7049 30.6637 7.84365 30.505 7.8749V7.9699H31.1012L31.0987 7.88615ZM31.3075 6.0524L31.6025 7.03115H31.03L31.3075 6.0524ZM21.6825 5.3674C21.8075 5.37615 21.955 5.3849 21.955 5.6474V7.60115C21.955 7.85115 21.84 7.86865 21.6825 7.88865V7.99365H22.7125V7.88865C22.55 7.87615 22.4325 7.8599 22.4325 7.60115V5.65115C22.4325 5.38115 22.5725 5.37615 22.7125 5.37115V5.2499H21.6825V5.3674ZM27.6625 14.9174C27.9119 15.2998 28.0796 15.7296 28.155 16.1799C28.3675 17.4512 27.7475 18.7949 25.4237 18.9299C25.3862 20.8349 24.9175 21.6137 22.5012 21.6549C22.71 23.6824 21.6512 24.3424 20.51 24.3424C19.3687 24.3424 18.3037 23.6837 18.5137 21.6549C16.0975 21.6112 15.6312 20.8324 15.5887 18.9299C13.2637 18.8087 12.6475 17.4649 12.8637 16.1799C12.9337 15.7274 13.1087 15.2887 13.3537 14.9299H0.953735V15.5599C0.974985 38.8749 20.2337 48.8999 20.2912 48.9312L20.5825 49.0874L20.8787 48.9312C20.9362 48.8999 40.1975 38.8624 40.2162 15.5599V14.9299L27.6625 14.9174ZM11.575 36.2999C12.0375 36.0574 12.3912 35.3462 12.475 34.8624C12.6 34.2374 12.7175 33.9874 13.05 33.9649C13.3825 33.9424 13.5125 34.2374 13.625 34.8624C13.7075 35.3462 14.06 36.0562 14.5225 36.2999C14.81 36.4524 15.74 36.4749 15.5512 37.0199C15.4225 37.2674 15.2512 37.7749 15.0012 37.5499C14.7512 37.3249 14.3112 36.7374 14.1262 36.6999C13.9587 36.6712 13.9825 36.9249 14.0537 37.0124C14.1512 37.1224 14.445 37.5499 14.6125 37.7462C14.825 37.9862 14.89 38.4274 14.5187 38.6012C14.1475 38.7749 13.7687 38.5537 13.7775 38.3549C13.79 38.0549 13.6112 37.1986 13.4487 37.1986C13.32 37.1986 13.315 37.4237 13.3287 37.6637C13.2787 38.1687 13.6162 38.5724 13.5787 38.8324C13.5325 39.0849 13.4787 39.3537 13.0362 39.3487C12.5912 39.3362 12.5362 39.0987 12.4937 38.8324C12.4525 38.5824 12.7937 38.1674 12.7387 37.6637C12.7537 37.4224 12.7487 37.1986 12.62 37.1986C12.4625 37.1986 12.275 38.0562 12.295 38.3549C12.3025 38.5549 11.92 38.7762 11.55 38.6012C11.18 38.4262 11.245 37.9849 11.4537 37.7462C11.6225 37.5487 11.92 37.1237 12.0162 37.0124C12.085 36.9249 12.1137 36.6712 11.9437 36.6999C11.7725 36.7374 11.3387 37.3224 11.0837 37.5499C10.8287 37.7774 10.6612 37.2674 10.5337 37.0199C10.3462 36.4762 11.2737 36.4524 11.5625 36.2999H11.575ZM11.8925 34.6999C12.1887 34.6662 12.04 34.9749 12.0087 35.2499C11.9775 35.5249 11.9037 35.5499 11.6175 35.1649C11.3312 34.7799 11.5712 34.7362 11.8925 34.7024V34.6999ZM14.1925 34.7274C14.5112 34.7699 14.755 34.8149 14.4675 35.1899C14.18 35.5749 14.1075 35.5449 14.075 35.2774C14.0425 35.0099 13.8937 34.6974 14.1925 34.7249V34.7274ZM27.8925 37.1986C27.7337 37.1986 27.555 38.0562 27.5675 38.3549C27.575 38.5549 27.1975 38.7762 26.8237 38.6012C26.45 38.4262 26.52 37.9849 26.73 37.7462C26.9 37.5487 27.1987 37.1237 27.2925 37.0124C27.36 36.9249 27.3862 36.6712 27.2175 36.6999C27.0487 36.7374 26.6112 37.3224 26.3425 37.5499C26.0737 37.7774 25.9212 37.2674 25.7925 37.0199C25.6 36.4774 26.5325 36.4524 26.8175 36.2999C27.28 36.0574 27.6337 35.3462 27.7175 34.8624C27.8262 34.2374 27.9675 33.9874 28.2925 33.9649C28.6175 33.9424 28.75 34.2374 28.8675 34.8624C28.9487 35.3462 29.305 36.0562 29.7675 36.2999C30.055 36.4524 30.9837 36.4749 30.7962 37.0199C30.665 37.2674 30.4962 37.7749 30.2425 37.5499C29.9887 37.3249 29.555 36.7374 29.3837 36.6999C29.2175 36.6712 29.2412 36.9249 29.3112 37.0124C29.4112 37.1224 29.7062 37.5499 29.8762 37.7462C30.0887 37.9862 30.1512 38.4274 29.7762 38.6012C29.4012 38.7749 29.0262 38.5537 29.0362 38.3549C29.0487 38.0549 28.8675 37.1986 28.7075 37.1986C28.5775 37.1986 28.5825 37.4237 28.5887 37.6637C28.5337 38.1687 28.8762 38.5724 28.8312 38.8324C28.79 39.0849 28.735 39.3537 28.2937 39.3487C27.8462 39.3362 27.7937 39.0987 27.7487 38.8324C27.7062 38.5824 28.0462 38.1674 27.9937 37.6637C28.0112 37.4224 28.0087 37.1986 27.875 37.1986H27.8925ZM27.1512 34.6986C27.4512 34.6649 27.2975 34.9737 27.27 35.2487C27.2425 35.5237 27.1625 35.5487 26.8787 35.1637C26.595 34.7787 26.8337 34.7349 27.1537 34.7012L27.1512 34.6986ZM29.4512 34.7262C29.7737 34.7687 30.01 34.8137 29.7262 35.1887C29.4412 35.5737 29.3662 35.5437 29.335 35.2762C29.3037 35.0087 29.15 34.6962 29.45 34.7237L29.4512 34.7262ZM29.7262 19.8212C29.4412 20.2037 29.3662 20.1762 29.335 19.9049C29.3037 19.6337 29.15 19.3262 29.45 19.3549C29.7712 19.3899 30.01 19.4424 29.7262 19.8212ZM27.1487 19.3262C27.4487 19.2937 27.295 19.6049 27.2675 19.8724C27.24 20.1399 27.16 20.1762 26.8762 19.7924C26.5925 19.4087 26.8312 19.3587 27.1512 19.3262H27.1487ZM26.8312 20.9262C27.2937 20.6837 27.6475 19.9799 27.7312 19.4912C27.84 18.8624 27.9812 18.6162 28.3062 18.5912C28.6312 18.5849 28.7637 18.8637 28.8812 19.4912C28.9625 19.9912 29.3187 20.6824 29.7812 20.9262C30.0687 21.0812 30.9975 21.1012 30.81 21.6474C30.6787 21.9024 30.51 22.4024 30.2562 22.1774C30.0025 21.9524 29.5687 21.3649 29.3975 21.3299C29.2262 21.2949 29.255 21.5624 29.325 21.6387C29.425 21.7549 29.72 22.1762 29.89 22.3712C30.1025 22.6124 30.165 23.0587 29.79 23.2462C29.415 23.4337 29.04 23.1962 29.05 22.9962C29.0625 22.6962 28.8812 21.8387 28.7212 21.8387C28.5912 21.8387 28.5962 22.0587 28.6025 22.3062C28.5475 22.8099 28.89 23.2112 28.845 23.4724C28.8 23.7337 28.7487 23.9949 28.3075 23.9887C27.86 23.9787 27.8075 23.7312 27.7625 23.4724C27.7175 23.2137 28.06 22.8099 28.0075 22.3062C28.0275 22.0587 28.0237 21.8387 27.8887 21.8387C27.73 21.8387 27.5512 22.6974 27.5637 22.9962C27.5712 23.1924 27.1937 23.4174 26.82 23.2462C26.4462 23.0749 26.5162 22.6249 26.7262 22.3887C26.8962 22.1887 27.195 21.7674 27.2887 21.6387C27.3562 21.5637 27.3825 21.2974 27.2137 21.3299C27.045 21.3624 26.6075 21.9499 26.3387 22.1774C26.07 22.4049 25.9175 21.9024 25.7887 21.6474C25.5962 21.0999 26.5287 21.0824 26.8137 20.9262H26.8312ZM28.3062 27.0512C28.0937 24.9012 29.4487 24.2837 31.0587 24.4074C30.8462 22.2574 31.9337 21.5537 33.8562 21.6349C33.6012 19.1187 35.2987 18.8287 36.6137 18.9124C36.41 17.0374 37.745 16.2649 38.6512 16.1699H38.9387C38.8137 24.7949 35.9312 31.4574 32.4787 36.4274C31.0462 36.0724 30.8162 34.9124 30.9312 33.8699C28.815 34.1199 27.9662 32.5887 28.26 31.1424C27.455 31.4299 25.7162 31.0174 25.5062 29.4874C25.2962 27.9574 26.525 27.0512 28.3062 27.0512ZM21.8062 27.0336C22.1262 27.0661 22.3687 27.1149 22.0837 27.4936C21.7987 27.8724 21.7237 27.8474 21.6925 27.5774C21.6612 27.3074 21.5075 26.9999 21.8175 27.0336H21.8062ZM19.5062 26.9999C19.8 26.9662 19.6525 27.2799 19.6312 27.5449C19.61 27.8099 19.5275 27.8474 19.2562 27.4662C18.985 27.0849 19.21 27.0349 19.5337 26.9999H19.5062ZM19.1875 28.5999C19.6475 28.3574 20.0037 27.6499 20.085 27.1624C20.195 26.5399 20.3312 26.2874 20.66 26.2649C20.9887 26.2424 21.1225 26.5399 21.23 27.1624C21.315 27.6624 21.67 28.3562 22.13 28.5999C22.42 28.7524 23.35 28.7749 23.16 29.3249C23.0287 29.5787 22.86 30.0811 22.6075 29.8549C22.355 29.6286 21.9162 29.0399 21.7512 29.0049C21.5787 28.9749 21.605 29.2299 21.6762 29.3174C21.7712 29.4424 22.0675 29.8549 22.2387 30.0512C22.4512 30.2924 22.5112 30.7312 22.1412 30.9074C21.7712 31.0837 21.3887 30.8574 21.3975 30.6574C21.4162 30.3549 21.2287 29.5012 21.0687 29.5012C20.9412 29.5012 20.9375 29.7187 20.9437 29.9599C20.8937 30.4599 21.2312 30.8749 21.1887 31.1349C21.1462 31.3949 21.0912 31.6562 20.6487 31.6499C20.2062 31.6437 20.1487 31.3999 20.1112 31.1349C20.065 30.8762 20.4025 30.4724 20.3512 29.9599C20.3662 29.7199 20.36 29.5012 20.235 29.5012C20.0725 29.5012 19.8925 30.3549 19.9037 30.6574C19.9162 30.8549 19.535 31.0799 19.1637 30.9074C18.7925 30.7349 18.8575 30.2924 19.07 30.0512C19.2387 29.8562 19.535 29.4299 19.6287 29.3174C19.6987 29.2299 19.7262 28.9762 19.5537 29.0049C19.3812 29.0337 18.95 29.6249 18.6987 29.8549C18.4475 30.0849 18.2737 29.5799 18.145 29.3249C17.955 28.7749 18.895 28.7524 19.1737 28.5999H19.1875ZM18.4962 36.7249C18.3287 35.1074 19.3037 34.0399 20.6175 34.0399C21.9312 34.0399 22.905 35.1074 22.7387 36.7249C24.18 36.3124 26.0862 37.0074 25.6225 39.4912C27.2675 38.9337 28.535 39.7949 28.615 41.1449C24.9712 44.9411 21.54 47.0449 20.55 47.6262C19.545 47.0512 16.1787 44.9787 12.6037 41.2699C12.6037 39.8474 13.9162 38.9137 15.6137 39.4912C15.1475 37.0074 17.0575 36.3137 18.4962 36.7249ZM15.7837 29.4749C15.5712 31.0024 13.8337 31.4174 13.03 31.1299C13.3225 32.5762 12.48 34.1049 10.3575 33.8574C10.4775 34.9374 10.2325 36.1574 8.66749 36.4524C5.21374 31.4774 2.32998 24.7849 2.19998 16.1649C2.21248 16.1649 2.22499 16.1599 2.23749 16.1599H2.63749C3.54749 16.2599 4.87748 17.0274 4.67998 18.9024C5.99248 18.8187 7.68874 19.1087 7.43499 21.6249C9.34249 21.5437 10.445 22.2462 10.23 24.3974C11.855 24.2724 13.205 24.8912 12.99 27.0412C14.7675 27.0399 15.9962 27.9499 15.785 29.4762L15.7837 29.4749ZM11.6525 19.8462C11.615 20.1187 11.545 20.1499 11.2575 19.7662C10.97 19.3824 11.2175 19.3324 11.5362 19.2999C11.8362 19.2674 11.6837 19.5774 11.6525 19.8462ZM13.8362 19.3287C14.155 19.3662 14.3962 19.4162 14.1112 19.7949C13.8262 20.1737 13.7525 20.1499 13.72 19.8787C13.6875 19.6074 13.545 19.3012 13.8362 19.3287ZM13.2612 19.4537C13.3487 19.9537 13.7012 20.6449 14.1637 20.8887C14.4512 21.0437 15.3837 21.0637 15.1912 21.6099C15.0625 21.8649 14.8937 22.3687 14.6387 22.1399C14.3837 21.9112 13.9512 21.3274 13.7825 21.2924C13.6137 21.2574 13.64 21.5249 13.7112 21.6012C13.805 21.7174 14.0862 22.1387 14.2737 22.3512C14.4837 22.6012 14.5487 23.0349 14.1787 23.2087C13.8087 23.3824 13.4287 23.1587 13.435 22.9587C13.45 22.6587 13.265 21.8012 13.105 21.8012C12.98 21.8012 12.9737 22.0212 12.98 22.2687C12.925 22.7724 13.2612 23.1737 13.22 23.4349C13.1787 23.6962 13.1237 23.9574 12.68 23.9512C12.2362 23.9449 12.1825 23.6937 12.14 23.4349C12.0975 23.1762 12.4375 22.7724 12.3825 22.2687C12.4025 22.0212 12.395 21.8012 12.2575 21.8012C12.0987 21.8012 11.9137 22.6599 11.9262 22.9587C11.9387 23.1549 11.5587 23.3799 11.1762 23.2087C10.7937 23.0374 10.8675 22.5874 11.0812 22.3512C11.2487 22.1512 11.5475 21.7299 11.6412 21.6012C11.7125 21.5262 11.7375 21.2599 11.5687 21.2924C11.4 21.3249 10.965 21.9124 10.71 22.1399C10.455 22.3674 10.285 21.8649 10.16 21.6099C9.96749 21.0624 10.91 21.0449 11.185 20.8887C11.6475 20.6462 11.9975 19.9424 12.085 19.4537C12.1937 18.8249 12.33 18.5787 12.655 18.5537C12.9862 18.5474 13.1175 18.8262 13.225 19.4537H13.2612ZM60.4237 24.1999C60.4237 25.9774 59.2062 27.1749 56.5112 27.1749H51.4575V16.1499H56.3612C58.7012 16.1499 59.9537 17.2162 59.9537 19.0324C59.9537 20.3249 59.2062 21.2237 58.0262 21.5224C59.58 21.8412 60.4212 22.8899 60.4212 24.1999H60.4237ZM54.5 20.7499H55.68C56.4675 20.7499 56.955 20.4499 56.955 19.6999C56.955 18.9499 56.455 18.6499 55.68 18.6499H54.5V20.7499ZM54.5 24.6624H56.0912C56.8575 24.6624 57.2887 24.3249 57.2887 23.6899C57.2887 23.0549 56.8575 22.7149 56.0912 22.7149H54.5V24.6624ZM66.405 25.5774C66.16 26.7199 65.28 27.4099 63.8025 27.4099C62.23 27.4099 61.1275 26.4374 61.1275 24.4099V18.5249H64.1587V23.7499C64.1587 24.6249 64.4012 25.1349 65.0962 25.1349C65.8837 25.1349 66.3712 24.4224 66.3712 23.0199V18.5249H69.375V27.1724H66.6625L66.405 25.5774ZM72.475 24.1999C72.5352 24.5143 72.7061 24.7967 72.9568 24.9958C73.2075 25.1949 73.5213 25.2975 73.8412 25.2849C74.3837 25.2849 74.7587 25.0974 74.7587 24.7224C74.7587 24.3474 74.4412 24.1799 73.8212 24.0474L72.6587 23.8037C71.0862 23.4662 70.2625 22.6612 70.2625 21.2387C70.2625 19.1424 72.06 18.3187 73.9875 18.3187C76.065 18.3187 77.3187 19.1937 77.6175 20.7899L74.8675 21.2024C74.7737 20.7024 74.475 20.4349 73.8925 20.4349C73.4625 20.4349 73.1625 20.6412 73.1625 20.9774C73.1625 21.3137 73.405 21.4824 73.855 21.5587L75.015 21.7649C76.9237 22.0837 77.7275 23.1124 77.7275 24.5724C77.7275 26.6124 75.95 27.3974 73.815 27.3974C71.85 27.3974 70.54 26.6874 70.065 25.1512L72.475 24.1999ZM80.11 14.7812C81.01 14.7812 81.7762 15.3987 81.7762 16.3724C81.7762 17.3462 81.0087 17.9637 80.11 17.9637C79.2112 17.9637 78.445 17.3462 78.445 16.3724C78.445 15.3987 79.2125 14.7812 80.11 14.7812ZM81.625 18.5249V27.1724H78.625V18.5249H81.625ZM85.9325 20.1924C86.3825 18.8999 87.3925 18.3199 88.6825 18.3199C90.0112 18.3199 91.21 19.1074 91.21 21.0912V27.1749H88.21V22.2499C88.21 21.3699 87.96 20.8274 87.1812 20.8274C86.5262 20.8274 85.965 21.2212 85.965 22.5499V27.1724H82.9375V18.5249H85.6525L85.9325 20.1924ZM97.7037 24.0499L100.212 24.8374C99.7125 26.6899 98.19 27.3999 96.4675 27.3999C93.905 27.3999 92.0325 25.7724 92.0325 22.9449C92.0325 20.0249 93.6787 18.3199 96.4075 18.3199C98.97 18.3199 100.282 19.9674 100.282 22.3637L100.245 23.4512H94.95C95.0075 24.5187 95.53 25.0974 96.43 25.0974C97.055 25.0974 97.4975 24.8174 97.7025 24.0512L97.7037 24.0499ZM97.4037 21.9149C97.4037 21.1649 97.1537 20.5099 96.2987 20.5099C95.5687 20.5099 95.1012 21.1099 95.0262 21.9149H97.4037Z" fill="#838383"/>
<path d="M103.037 24.1999C103.098 24.5143 103.269 24.7967 103.519 24.9958C103.77 25.1949 104.084 25.2974 104.404 25.2849C104.946 25.2849 105.321 25.0974 105.321 24.7224C105.321 24.3474 105.004 24.1799 104.386 24.0474L103.224 23.8036C101.651 23.4661 100.829 22.6611 100.829 21.2386C100.829 19.1424 102.625 18.3186 104.554 18.3186C106.632 18.3186 107.886 19.1811 108.185 20.7899L105.432 21.2024C105.339 20.7024 105.04 20.4349 104.457 20.4349C104.027 20.4349 103.727 20.6411 103.727 20.9774C103.727 21.3136 103.97 21.4824 104.42 21.5586L105.582 21.7649C107.491 22.0836 108.295 23.1124 108.295 24.5724C108.295 26.6124 106.516 27.3974 104.382 27.3974C102.417 27.3974 101.107 26.6874 100.632 25.1511L103.037 24.1999Z" fill="#838383"/>
<path d="M111.05 24.2C111.11 24.5144 111.281 24.7968 111.532 24.9959C111.783 25.195 112.096 25.2976 112.416 25.285C112.959 25.285 113.335 25.0975 113.335 24.7225C113.335 24.3475 113.016 24.18 112.398 24.0475L111.238 23.8037C109.665 23.4662 108.84 22.6612 108.84 21.2387C108.84 19.1425 110.638 18.3187 112.565 18.3187C114.643 18.3187 115.896 19.1937 116.196 20.79L113.443 21.2025C113.35 20.7025 113.05 20.435 112.47 20.435C112.04 20.435 111.74 20.6412 111.74 20.9775C111.74 21.3137 111.983 21.4825 112.433 21.5587L113.593 21.765C115.503 22.0837 116.308 23.1125 116.308 24.5725C116.308 26.6125 114.529 27.3975 112.395 27.3975C110.43 27.3975 109.12 26.6875 108.645 25.1512L111.05 24.2ZM57.6325 40.5225C57.2788 40.2225 57.1475 39.81 57.0163 39.2875L56.6788 37.9212C56.4913 37.1337 56.1738 36.9837 55.4613 36.9837H54.5075V40.5212H51.4575V29.5H56.1738C58.6438 29.5 60.3488 30.4537 60.3488 32.9625C60.3488 34.7037 59.2238 35.565 58.0088 35.77C59.0188 35.9762 59.525 36.4237 59.7875 37.38L60.3125 39.27C60.4438 39.77 60.5925 40.145 60.9875 40.525L57.6325 40.5225ZM54.5075 34.515H55.6875C56.7538 34.515 57.2225 34.0825 57.2225 33.2975C57.2225 32.5125 56.7538 32.08 55.6875 32.08H54.5075V34.515ZM66.4675 37.3975L68.975 38.185C68.475 40.0387 66.9525 40.7475 65.2313 40.7475C62.6663 40.7475 60.7938 39.1187 60.7938 36.2937C60.7938 33.3737 62.4413 31.6687 65.1688 31.6687C67.7313 31.6687 69.0438 33.3162 69.0438 35.7112L69.0063 36.7987H63.7313C63.7875 37.8637 64.3113 38.4437 65.21 38.4437C65.845 38.4437 66.2763 38.165 66.4825 37.3975H66.4675ZM66.1675 35.25C66.1675 34.5025 65.9175 33.8475 65.0638 33.8475C64.3338 33.8475 63.8663 34.4475 63.7913 35.25H66.1675ZM68.8075 31.875H72L72.9925 35.3562L73.555 37.4725H73.5925C73.5925 37.4725 73.78 36.5975 74.1738 35.3562L75.2963 31.875H78.2338L75.09 40.5212H71.8338L68.8075 31.875ZM80.3725 28.1337C81.2725 28.1337 82.04 28.7512 82.04 29.725C82.04 30.6987 81.2713 31.315 80.3725 31.315C79.4738 31.315 78.7075 30.6987 78.7075 29.725C78.7075 28.7512 79.475 28.1337 80.3725 28.1337ZM81.875 31.875V40.5212H78.875V31.875H81.875ZM88.4838 37.3975L90.9913 38.185C90.4913 40.0387 88.97 40.7475 87.2488 40.7475C84.6863 40.7475 82.8138 39.1187 82.8138 36.2937C82.8138 33.3737 84.4613 31.6687 87.1888 31.6687C89.7513 31.6687 91.0638 33.3162 91.0638 35.7112L91.0263 36.7987H85.75C85.8063 37.8637 86.3288 38.4437 87.2275 38.4437C87.8525 38.4437 88.2963 38.165 88.5025 37.3975H88.4838ZM88.1975 35.25C88.1975 34.5025 87.9475 33.8475 87.0938 33.8475C86.3625 33.8475 85.8938 34.4475 85.8213 35.25H88.1975ZM99.1475 31.875L99.765 34.875L100.265 37.59H100.303L100.845 34.9125L101.538 31.8625H104.475L102.138 40.5087H98.7625L98.2375 37.9812L97.7688 35.2112H97.7313L97.2638 37.9812L96.7388 40.5087H93.37L91.0038 31.875H94.0538L94.7463 34.925L95.2888 37.6025H95.3263L95.8263 34.8875L96.445 31.8875L99.1475 31.875ZM69.8 10.975C69.8 11.3875 69.925 11.6 70.2313 11.6C70.4188 11.6 70.6063 11.525 70.7738 11.4312V13.5662C70.3613 13.8662 69.97 13.9787 69.2763 13.9787C68.1163 13.9787 67.48 13.4537 67.1413 12.6112C66.6413 13.5112 65.8863 14.0162 64.6413 14.0162C63.0513 14.0162 62.0575 13.0787 62.0575 11.6012C62.0575 9.74749 63.3863 8.81374 65.9875 8.81374H66.8675V8.23374C66.8675 7.67124 66.68 7.27874 66.1375 7.27874C65.6125 7.27874 65.3713 7.59749 65.3338 8.30874L62.45 7.85874C62.6188 6.07999 64.005 4.95874 66.2313 4.95874C68.7025 4.95874 69.7875 6.04624 69.7875 7.93624L69.8 10.975ZM66.88 10.3575H66.5C65.4125 10.3575 65.0375 10.695 65.0375 11.2575C65.0375 11.67 65.3175 11.9875 65.8425 11.9875C66.3475 11.9875 66.89 11.7375 66.89 10.9212L66.88 10.3575ZM77.1575 8.57999C76.8013 8.44874 76.595 8.35499 76.1075 8.35499C75.395 8.35499 74.5363 8.63499 74.5363 10.1712V13.8212H71.52V5.17124H74.1038L74.4038 7.30624C74.6463 5.86374 75.8638 5.17124 77.3413 5.17124L77.1575 8.57999Z" fill="#838383"/>
<path d="M77.625 5.17244H80.8088L81.8 8.65494L82.3625 10.7699H82.4C82.4 10.7699 82.5875 9.89494 82.98 8.65494L84.1025 5.17244H87.04L83.895 13.8224H80.65L77.625 5.17244ZM94.315 10.9749C94.315 11.3874 94.44 11.5999 94.7463 11.5999C94.9384 11.5899 95.1249 11.5319 95.2888 11.4312V13.5662C94.8763 13.8662 94.4838 13.9787 93.7913 13.9787C92.6313 13.9787 91.995 13.4537 91.6575 12.6112C91.1575 13.5112 90.4038 14.0162 89.1575 14.0162C87.5663 14.0162 86.5738 13.0787 86.5738 11.6012C86.5738 9.74744 87.9013 8.81369 90.5038 8.81369H91.3838V8.23369C91.3838 7.67119 91.1963 7.27869 90.6538 7.27869C90.1288 7.27869 89.8863 7.59744 89.8488 8.30869L86.9663 7.85869C87.1338 6.07994 88.52 4.95869 90.7475 4.95869C93.2188 4.95869 94.3038 6.04619 94.3038 7.93619L94.315 10.9749ZM91.395 10.3574H91C89.915 10.3574 89.5413 10.6949 89.5413 11.2574C89.5413 11.6699 89.8213 11.9874 90.3463 11.9874C90.8525 11.9874 91.3963 11.7374 91.3963 10.9212L91.395 10.3574ZM101.67 8.57994C101.314 8.44869 101.11 8.35494 100.62 8.35494C99.91 8.35494 99.0488 8.63494 99.0488 10.1712V13.8212H96.0488V5.17119H98.6325L98.9325 7.30619C99.1763 5.86369 100.395 5.17119 101.873 5.17119L101.67 8.57994ZM108.238 2.25244H111.271V13.8212H108.538L108.258 12.3237C107.939 13.4837 106.908 14.0462 105.599 14.0462C103.578 14.0462 102.136 12.4737 102.136 9.66494C102.136 6.76494 103.511 4.96494 105.955 4.96494C107.061 4.96494 107.939 5.46994 108.238 6.29369V2.25244ZM108.258 8.87744C108.258 7.77369 107.714 7.17494 106.835 7.17494C105.956 7.17494 105.206 7.82994 105.206 9.55244C105.206 10.9749 105.806 11.7237 106.796 11.7237C107.565 11.7237 108.259 11.1437 108.259 9.96494L108.258 8.87744ZM51.4575 13.8224V2.79744H54.5275V6.89744H58.3088V2.79744H61.3788V13.8224H58.3088V9.55369H54.525V13.8224H51.4575Z" fill="#838383"/>
</svg>
